<?xml version="1.0" standalone="no"?><!DOCTYPE svg PUBLIC "-//W3C//DTD SVG 1.1//EN" "http://www.w3.org/Graphics/SVG/1.1/DTD/svg11.dtd"><svg t="1719997120034" class="icon" viewBox="0 0 1024 1024" version="1.1" xmlns="http://www.w3.org/2000/svg" p-id="2619" xmlns:xlink="http://www.w3.org/1999/xlink" width="64" height="64"><path d="M982.032787 847.737705L637.901639 503.606557l327.344263-327.344262c33.57377-33.57377 33.57377-83.934426 0-117.508197s-83.934426-33.57377-117.508197 0L520.393443 386.098361 176.262295 50.360656C142.688525 16.786885 92.327869 16.786885 58.754098 50.360656 25.180328 83.934426 25.180328 134.295082 58.754098 167.868852l344.131148 335.737705-335.737705 335.737705c-33.57377 33.57377-33.57377 83.934426 0 117.508197 16.786885 16.786885 41.967213 25.180328 58.754098 25.180328s41.967213-8.393443 58.754099-25.180328l335.737705-335.737705 344.131147 344.131148c16.786885 16.786885 33.57377 25.180328 58.754099 25.180328 25.180328 0 41.967213-8.393443 58.754098-25.180328 33.57377-33.57377 33.57377-83.934426 0-117.508197z" fill="#1296db" p-id="2620"></path></svg>