<?xml version="1.0" standalone="no"?><!DOCTYPE svg PUBLIC "-//W3C//DTD SVG 1.1//EN" "http://www.w3.org/Graphics/SVG/1.1/DTD/svg11.dtd"><svg t="1720066194910" class="icon" viewBox="0 0 1024 1024" version="1.1" xmlns="http://www.w3.org/2000/svg" p-id="13717" xmlns:xlink="http://www.w3.org/1999/xlink" width="64" height="64"><path d="M931.686 539.922l-352.378-357.43c-0.153-0.155-0.314-0.297-0.467-0.451-0.082-0.084-0.157-0.172-0.24-0.256-18.089-18.354-41.922-27.578-65.892-27.743-0.316-0.004-0.632-0.017-0.948-0.018-0.311 0.001-0.622 0.013-0.933 0.018-23.974 0.162-47.811 9.386-65.903 27.743-0.082 0.083-0.157 0.172-0.239 0.255-0.154 0.154-0.315 0.296-0.468 0.452L91.84 539.921c-37.153 37.685-37.476 99.034-0.718 136.331 36.758 37.297 97.231 36.979 134.384-0.707l286.257-290.361L798.02 675.545c37.153 37.685 97.625 38.004 134.383 0.707 36.759-37.296 36.436-98.645-0.717-136.33z" fill="#1296db" p-id="13718"></path></svg>